<svg width="32" height="24" viewBox="0 0 32 24" fill="none" xmlns="http://www.w3.org/2000/svg">
<g clip-path="url(#clip0_6415_3954)">
<path d="M23.5009 5.47055C24.0133 3.98488 23.2057 2.37145 21.697 1.86684C20.1884 1.36224 18.5501 2.15754 18.0377 3.64321C17.5252 5.12888 18.3328 6.74232 19.8415 7.24692C21.3501 7.75153 22.9885 6.95622 23.5009 5.47055Z" fill="#F28E46"/>
<path d="M13.8185 18.0237C14.03 18.0915 14.2206 18.1481 14.394 18.184C14.4135 18.1882 14.433 18.1918 14.4526 18.1952C14.6411 18.2297 14.8088 18.2365 14.9604 18.2032C15.24 18.1639 15.513 18.0532 15.7476 17.8642L20.1593 14.3109C19.2182 13.9065 18.4925 13.3826 17.9637 12.9046C16.4763 11.5601 15.9067 10.0303 15.8833 9.9659C15.6367 9.29127 15.9934 8.54479 16.6786 8.30198C16.8227 8.25084 16.9732 8.22483 17.1257 8.22483C17.6783 8.22483 18.1768 8.5684 18.3664 9.07978C18.3857 9.13053 18.58 9.6236 19.0328 10.2145C19.4444 9.22056 19.3333 8.06006 18.5503 7.56396C17.6016 6.96268 15.908 7.01458 14.6929 8.5607C13.0348 10.6962 12.3158 12.2067 11.7137 14.9677C11.4295 17.0198 12.7011 17.6656 13.8185 18.0237Z" fill="#F28E46"/>
<path d="M23.6637 12.3969C23.9153 12.3969 24.175 12.3832 24.4399 12.3578L22.5414 10.2644C21.97 9.63424 20.9957 9.55898 20.3315 10.0941L19.5371 10.734L19.5073 10.758C20.3238 11.581 21.6423 12.3969 23.6637 12.3969ZM25.5904 14.8277C24.9252 14.9419 24.2713 14.9999 23.6467 14.9999C23.2337 14.9999 22.8438 14.9722 22.4716 14.9263L25.1512 17.8807C25.4677 18.2299 25.9065 18.4078 26.347 18.4077C26.7269 18.4077 27.1084 18.2753 27.414 18.0065C28.0742 17.4258 28.1314 16.4282 27.5417 15.7781L26.3243 14.4357C26.1353 14.6342 25.883 14.7773 25.5904 14.8277Z" fill="#F28E46"/>
<path d="M16.7784 8.57516C16.2454 8.76405 15.9688 9.34273 16.1607 9.86761C16.1832 9.92935 16.7301 11.3953 18.163 12.6905C19.2443 13.6678 21.0144 14.7094 23.6468 14.7094C24.2343 14.7094 24.8648 14.6575 25.5399 14.5414C26.0981 14.4455 26.4716 13.9224 26.3741 13.3727C26.2767 12.823 25.7442 12.4553 25.1873 12.5513C19.7892 13.478 18.1606 9.36684 18.0894 9.17909C17.8958 8.65723 17.3093 8.38652 16.7784 8.57516ZM29.9912 21.104L28.4953 18.3261L26.6576 19.2942L22.8752 18.4735L19.1449 19.6916L17.3432 19.3128L14.1527 19.1234L12.3885 18.4289L10.5117 17.1662L9.14799 18.1438C7.27372 16.9849 6.38684 15.2464 6.01309 14.2597C6.53263 13.8227 8.02904 12.8319 11.0976 12.6249C8.72154 11.9039 7.32385 12.2173 6.51314 12.7287C6.47378 12.1232 6.8774 11.0344 9.86997 10.2749C7.03934 9.85246 5.94617 10.9738 5.53703 12.0788C5.5569 11.169 5.76756 9.89476 6.53122 8.43665C4.91915 9.84703 4.53027 11.5606 4.47757 12.7096C3.38043 12.4649 1.5627 12.5927 0 15.2379C2.342 13.8177 3.56724 13.9009 4.10754 14.0948C3.29067 14.6297 2.38418 15.8561 2.47432 18.6691C3.34312 16.2171 4.47091 15.0153 5.13135 14.4839C5.61114 16.3318 7.34565 18.3823 8.05058 19.1593L6.68315 21.9642L5.33188 22.7295L4.80632 24H32.0001L31.1026 21.7852L29.9912 21.104Z" fill="#F28E46"/>
</g>
<defs>
<clipPath id="clip0_6415_3954">
<rect width="32" height="24" fill="white"/>
</clipPath>
</defs>
</svg>
