<svg width="26" height="24" viewBox="0 0 26 24" fill="none" xmlns="http://www.w3.org/2000/svg">
<path fill-rule="evenodd" clip-rule="evenodd" d="M9.01206 1.16288C11.6388 0.612375 14.3612 0.612375 16.9879 1.16288L17.5374 1.27803C19.8043 1.7531 21.7747 2.95303 23.1632 4.61452C23.3898 4.88572 23.3136 5.27676 23.0143 5.47502L14.7178 10.9689C13.6864 11.6519 12.3136 11.6519 11.2821 10.9689L2.98574 5.47503C2.68635 5.27677 2.61015 4.88573 2.8368 4.61453C4.2253 2.95303 6.19572 1.7531 8.46257 1.27803L9.01206 1.16288ZM2.15608 7.23168C1.80867 7.00163 1.32439 7.13351 1.19286 7.5149C1.11941 7.7279 1.05369 7.94436 0.99603 8.16399C0.334657 10.6831 0.334657 13.3169 0.99603 15.836C1.90176 19.2858 4.79398 21.9531 8.46256 22.722L9.01206 22.8371C11.6388 23.3876 14.3612 23.3876 16.9879 22.8371L17.5374 22.722C21.206 21.9531 24.0982 19.2858 25.004 15.836C25.6653 13.3169 25.6653 10.6831 25.004 8.164C24.9463 7.94436 24.8806 7.72789 24.8071 7.51488C24.6756 7.1335 24.1913 7.00161 23.8439 7.23166L15.8631 12.5166C14.144 13.6549 11.856 13.6549 10.1369 12.5166L2.15608 7.23168Z" fill="white"/>
</svg>
