<svg width="38" height="38" viewBox="0 0 38 38" fill="none" xmlns="http://www.w3.org/2000/svg">
<path d="M0 38V10.7179C0.417582 5.15018 4.8718 0.417582 10.4396 0H37.0256V27.6996C36.7473 33.1282 32.4322 37.7216 27.1429 38H0ZM19.2088 8.49084H7.0989V8.63004L13.3626 19.6264H19.4872C19.348 19.9048 19.2088 20.1832 19.0696 20.3223C18.2344 21.8535 17.3993 23.3846 16.4249 24.9158C16.4249 25.0549 16.2857 25.0549 16.2857 25.1941H10.3004C10.3004 25.1941 10.1612 25.1941 10.3004 25.3333L13.2234 30.6227H19.0696H19.2088L25.4725 19.7656L22.2711 14.1978H28.2564V14.0586C29.2308 12.5275 30.2051 10.7179 31.1795 9.04762C31.3187 8.90843 31.3187 8.76923 31.3187 8.63004H25.3333C25.3333 8.63004 25.1941 8.63004 25.1941 8.76923L22.1319 14.337L19.2088 8.49084Z" fill="url(#paint0_linear_6095_472)"/>
<defs>
<linearGradient id="paint0_linear_6095_472" x1="-0.303722" y1="0.50611" x2="36.8746" y2="37.1456" gradientUnits="userSpaceOnUse">
<stop stop-color="#F9B513"/>
<stop offset="1" stop-color="#EA601E"/>
</linearGradient>
</defs>
</svg>
