<svg width="111" height="27" viewBox="0 0 111 27" fill="none" xmlns="http://www.w3.org/2000/svg">
<g clip-path="url(#clip0_8044_192)">
<path fill-rule="evenodd" clip-rule="evenodd" d="M8.30197 19.9653C17.6445 25.738 25.3913 11.6296 15.6326 6.78062C15.147 6.57281 14.6382 6.41117 14.0832 6.29572C13.3895 6.15718 12.9963 6.20336 12.6263 5.74155C12.0251 4.97956 12.372 3.45558 14.0138 3.70957C27.1257 5.97245 24.3045 25.2993 11.1232 23.6829C9.87447 23.4982 8.83385 22.8055 8.11697 23.9138C7.79322 24.4218 7.93197 25.0684 8.25572 25.4609C8.53322 25.8073 9.0651 25.9458 9.64322 26.0844C18.6388 28.532 27.3801 19.4574 24.8595 10.5444C24.1426 7.77352 22.6857 5.55682 20.5351 3.77885C18.3151 2.13941 15.3782 0.569254 12.4182 1.1927C9.66635 2.07014 8.8801 5.67227 10.7532 7.58879C11.5163 8.37387 12.0713 8.67405 13.5282 8.85877C17.8063 9.66694 18.9857 15.3703 15.3551 17.8179C13.6438 19.0417 10.9151 18.9032 9.36572 17.4023C8.02447 16.317 7.33072 14.008 7.97822 12.23C8.92635 5.99554 0.0925977 5.3721 0.0694727 12.3916C-0.0924023 14.2158 0.0463477 16.0399 0.670723 17.7486C1.17947 18.8108 2.72885 18.6492 3.07572 17.587C3.26072 16.9867 2.98322 16.5248 2.8676 15.9476C2.4976 14.2158 2.54385 12.2993 3.12197 10.6137C3.3301 10.198 3.90822 9.92094 4.46322 10.0133C6.79885 10.8677 4.11635 12.7842 5.57322 16.317C6.52135 18.603 6.77572 17.7487 5.75822 18.8108C5.41135 19.1572 4.09322 20.4964 3.74635 20.8197L2.72885 21.8588C2.45135 22.1359 1.98885 22.4822 2.01197 23.1518C2.05822 24.214 3.35322 24.9529 4.27822 24.0062L8.30197 19.9653Z" fill="#2B45E2"/>
<path fill-rule="evenodd" clip-rule="evenodd" d="M9.41211 15.3013C11.1927 18.5109 16.0721 17.1716 15.9565 13.5464C14.384 15.74 11.979 16.502 9.41211 15.3013Z" fill="#2B45E2"/>
<path fill-rule="evenodd" clip-rule="evenodd" d="M7.49263 0.523158C6.19763 0.846427 6.70638 2.67058 7.90888 2.3935C9.04201 2.1395 8.78763 0.269162 7.49263 0.523158Z" fill="#2B45E2"/>
<path fill-rule="evenodd" clip-rule="evenodd" d="M5.57342 3.15549C4.57904 3.36331 4.78717 5.00274 5.92029 4.79492C6.96092 4.58711 6.68342 2.92459 5.57342 3.15549Z" fill="#2B45E2"/>
<path fill-rule="evenodd" clip-rule="evenodd" d="M7.65435 5.58012C6.72935 5.83411 7.1456 7.19646 8.04748 6.96555C8.9031 6.73464 8.57935 5.30303 7.65435 5.58012Z" fill="#2B45E2"/>
<path d="M29.3687 19.7346V7.104H32.028V17.4255H38.2949V19.7346H29.3687Z" fill="black"/>
<path d="M44.8391 19.7346C44.7697 19.5037 44.7003 19.1804 44.6772 18.9033C44.0759 19.5499 43.1047 19.9886 41.8328 19.9886C39.7053 19.9886 38.7109 18.9495 38.7109 17.4255C38.7109 14.7239 40.5147 14.4238 43.0122 14.0774C44.2609 13.9158 44.5847 13.6618 44.5847 13.0152C44.5847 12.4149 43.9834 12.0454 43.0122 12.0454C41.8791 12.0454 41.4397 12.5996 41.3241 13.4309H39.0116C39.0578 11.4913 40.1216 10.1289 43.1278 10.1289C46.1109 10.1289 47.1284 11.4682 47.1284 13.8234V19.7346H44.8391ZM44.6772 15.1396C44.4228 15.3936 43.9834 15.509 43.0816 15.6937C41.6709 15.9708 41.2084 16.3634 41.2084 17.1484C41.2084 17.8412 41.6247 18.1875 42.4109 18.1875C43.6828 18.1875 44.6309 17.2639 44.6541 16.1556L44.6772 15.1396Z" fill="black"/>
<path d="M48.2388 19.7346V6.94238H50.6669V11.5836C51.3606 10.5907 52.2856 10.1289 53.4419 10.1289C55.87 10.1289 57.2806 12.1378 57.2806 14.9548C57.2806 18.1182 55.5925 19.9886 53.2338 19.9886C52.1006 19.9886 51.2219 19.5498 50.6206 18.6031L50.5975 19.7346H48.2388ZM54.7831 15.1165C54.7831 13.1999 54.0894 12.2301 52.6556 12.2301C51.2913 12.2301 50.5744 13.2461 50.5744 15.2781C50.5744 16.8482 51.4994 17.9566 52.6788 17.9566C53.9275 17.9566 54.7831 16.8021 54.7831 15.1165Z" fill="black"/>
<path d="M65.3279 10.8215C65.1892 9.52848 64.4029 8.90503 62.8073 8.90503C61.3273 8.90503 60.5411 9.43611 60.5411 10.3828C60.5411 11.191 61.0961 11.6297 62.5067 11.9761C63.9404 12.3224 65.3279 12.6688 66.2529 13.0844C67.3629 13.5693 68.2417 14.3544 68.2417 16.1555C68.2417 18.9263 66.1373 20.1732 63.2004 20.1732C60.0786 20.1732 57.9048 18.7878 57.8354 15.9477H60.3792C60.4254 17.2407 61.5123 18.0489 63.2004 18.0489C64.7729 18.0489 65.6517 17.3793 65.6517 16.2709C65.6517 15.532 65.2817 15.024 63.6861 14.6777C62.1136 14.3313 61.1192 14.1004 60.2173 13.7079C58.8761 13.1075 58.1129 12.1839 58.1129 10.5906C58.1129 8.32777 59.6623 6.71143 62.7379 6.71143C65.9292 6.71143 67.7329 8.44322 67.8254 10.8677H65.3279V10.8215Z" fill="black"/>
<path d="M71.2249 15.6937C71.2942 17.1023 72.1036 18.0259 73.3292 18.0259C74.1386 18.0259 74.8324 17.6333 75.0174 16.9868H77.5611C76.983 18.9033 75.4567 19.9886 73.4449 19.9886C70.323 19.9886 68.7505 18.2799 68.7505 14.8856C68.7505 11.9992 70.4155 10.1289 73.283 10.1289C76.1505 10.1289 77.6767 11.9992 77.6767 15.6937H71.2249ZM75.133 14.1467C75.0867 12.7612 74.1849 12.0916 73.2136 12.0916C72.2192 12.0916 71.4099 12.8536 71.3174 14.1467H75.133Z" fill="black"/>
<path d="M84.406 19.7346C84.3366 19.5037 84.2672 19.1804 84.2441 18.9033C83.6428 19.5499 82.6716 19.9886 81.3997 19.9886C79.2722 19.9886 78.2778 18.9495 78.2778 17.4255C78.2778 14.7239 80.0816 14.4238 82.5791 14.0774C83.8278 13.9158 84.1516 13.6618 84.1516 13.0152C84.1516 12.4149 83.5503 12.0454 82.5791 12.0454C81.446 12.0454 81.0066 12.5996 80.891 13.4309H78.5785C78.6247 11.4913 79.6885 10.1289 82.6947 10.1289C85.6778 10.1289 86.6953 11.4682 86.6953 13.8234V19.7346H84.406ZM84.221 15.1396C83.9666 15.3936 83.5272 15.509 82.6253 15.6937C81.2147 15.9708 80.7522 16.3634 80.7522 17.1484C80.7522 17.8412 81.1685 18.1875 81.9547 18.1875C83.2266 18.1875 84.1747 17.2639 84.1978 16.1556L84.221 15.1396Z" fill="black"/>
<path d="M87.7822 19.7346V10.3598H90.1179V11.4913C90.9272 10.2444 91.8985 10.1289 92.8929 10.1289H93.2166V12.6689C92.9854 12.6227 92.7541 12.6227 92.5229 12.6227C90.9966 12.6227 90.2566 13.3847 90.2566 14.8856V19.7577H87.7822V19.7346Z" fill="black"/>
<path d="M101.773 16.3403C101.495 18.5108 99.7379 19.9655 97.4717 19.9655C94.9279 19.9655 93.1704 18.2799 93.1704 14.9317C93.1704 11.5836 94.9279 10.1289 97.5642 10.1289C99.9923 10.1289 101.657 11.5143 101.819 13.731H99.3217C99.1829 12.7612 98.4892 12.184 97.541 12.184C96.5004 12.184 95.6448 12.8536 95.6448 14.8856C95.6448 16.9175 96.5004 17.9104 97.4717 17.9104C98.4429 17.9104 99.206 17.3563 99.2985 16.3403H101.773Z" fill="black"/>
<path d="M108.503 19.7346V13.9157C108.503 12.5072 108.017 12.0685 106.907 12.0685C105.658 12.0685 104.988 13.0845 104.988 14.3545V19.7115H102.513V6.94238H104.988V11.5836C105.358 10.7523 106.491 10.1289 107.739 10.1289C109.659 10.1289 111 11.2603 111 13.1076V19.7346H108.503Z" fill="black"/>
</g>
<defs>
<clipPath id="clip0_8044_192">
<rect width="111" height="26" fill="white" transform="translate(0 0.5)"/>
</clipPath>
</defs>
</svg>
