<svg width="24" height="24" viewBox="0 0 24 24" fill="none" xmlns="http://www.w3.org/2000/svg">
<path d="M20 5H10.2L17 11.8C17.1 11.3 17.5 11 18 11C18.6 11 19 11.4 19 12C19 12.5 18.7 12.9 18.2 13L22.6 17.4C22.9 17 23 16.5 23 16V8C23 6.3 21.7 5 20 5ZM21.2 18.8L15 12.6L11.5 9L7.4 5L4.7 2.3C4.3 1.9 3.7 1.9 3.3 2.3C2.9 2.7 2.9 3.3 3.3 3.7L4.6 5H4C2.3 5 1 6.3 1 8V16C1 17.7 2.3 19 4 19H18.6L21.3 21.7C21.7 22.1 22.3 22.1 22.7 21.7C23.1 21.3 23.1 20.7 22.7 20.3L21.2 18.8ZM6 13C5.4 13 5 12.6 5 12C5 11.4 5.4 11 6 11C6.6 11 7 11.4 7 12C7 12.6 6.6 13 6 13ZM12.6 14.9C11 15.2 9.4 14.2 9.1 12.5C9 12.1 9 11.7 9.1 11.3C9.2 10.8 9.4 10.4 9.7 10L13.9 14.2C13.5 14.6 13.1 14.8 12.6 14.9Z" fill="#F28E46"/>
</svg>
