<svg width="30" height="30" viewBox="0 0 30 30" fill="none" xmlns="http://www.w3.org/2000/svg">
<path d="M23.84 7.71484H20.2V6.65479C20.2 5.26489 19.0701 4.13501 17.6899 4.13501H12.3101C10.9199 4.13501 9.79004 5.26489 9.79004 6.65479V7.71484H6.15991C4.41992 7.71484 3 9.13501 3 10.875V22.7051C3 24.4448 4.41992 25.865 6.15991 25.865H23.84C25.5801 25.865 27 24.4448 27 22.7051V10.875C27 9.13501 25.5801 7.71484 23.84 7.71484ZM11.79 6.65479C11.79 6.36499 12.02 6.13501 12.3101 6.13501H17.6899C17.97 6.13501 18.2 6.36499 18.2 6.65479V7.71484H11.79V6.65479ZM15 22.9949C11.5701 22.9949 8.79004 20.2148 8.79004 16.7849C8.79004 13.355 11.5701 10.575 15 10.575C18.4299 10.575 21.21 13.355 21.21 16.7849C21.21 20.2148 18.4299 22.9949 15 22.9949Z" fill="#F28E46"/>
<path d="M17.6401 14.145C17.2501 13.7549 16.6201 13.7549 16.2301 14.145L15.0001 15.375L13.7701 14.145C13.3801 13.7549 12.7501 13.7549 12.3601 14.145C11.9601 14.5349 11.9601 15.165 12.3601 15.5549L13.5901 16.7949L12.3601 18.0249C11.9601 18.415 11.9601 19.0449 12.3601 19.4351C12.7108 19.804 13.3652 19.8399 13.7701 19.4351L15.0001 18.2051L16.2301 19.4351C16.6351 19.8401 17.2893 19.8041 17.6401 19.4351C18.0401 19.0449 18.0401 18.415 17.6401 18.0249L16.41 16.7949L17.6401 15.5549C18.0401 15.165 18.0401 14.5349 17.6401 14.145Z" fill="#F28E46"/>
</svg>
