<svg width="43" height="27" viewBox="0 0 43 27" fill="none" xmlns="http://www.w3.org/2000/svg">
<path fill-rule="evenodd" clip-rule="evenodd" d="M12.4692 21.7083L17.2186 26.1301C15.7618 26.6667 14.0573 26.935 12.105 26.935C4.40089 26.935 0.548828 22.7695 0.548828 14.4448V10.6099L6.65963 16.4459C6.69826 16.8519 6.74991 17.2277 6.81462 17.5735C6.97512 18.4251 7.26526 19.178 7.67269 19.8198C8.08629 20.4677 8.65422 20.9429 9.38266 21.2515C10.1111 21.56 11.0186 21.7143 12.105 21.7143C12.2288 21.7143 12.3502 21.7123 12.4692 21.7083Z" fill="#F07C00"/>
<path fill-rule="evenodd" clip-rule="evenodd" d="M0.520508 7.40733L6.54554 13.0923V9.34328L0.520508 3.62598V7.40733Z" fill="#F07C00"/>
<path fill-rule="evenodd" clip-rule="evenodd" d="M0.548828 0.288574L6.57386 5.79493V0.288574H0.652865H0.548828Z" fill="#F07C00"/>
<path fill-rule="evenodd" clip-rule="evenodd" d="M17.6239 15.9769L23.6427 21.4731V14.4448V4.55187L30.2639 4.54916L30.3087 3.41387L30.3017 0.917367L30.3042 0.0646973L17.6123 0.0802122L17.6157 4.51601L17.6239 4.51628V14.4448C17.6239 14.943 17.6097 15.4107 17.582 15.848L17.6239 15.8861V15.9769Z" fill="#009035"/>
<path fill-rule="evenodd" clip-rule="evenodd" d="M21.7321 26.8012H23.6254L23.6554 24.6426L17.2419 18.8037L16.8727 19.747L16.4868 20.3304L16.0371 20.803L15.5361 21.17L21.7321 26.8012Z" fill="#F07C00"/>
<path fill-rule="evenodd" clip-rule="evenodd" d="M32.7278 4.59903C36.389 5.04015 36.7067 9.2998 35.6762 11.3335C34.2115 14.2237 30.9367 13.5053 27.1465 13.5153C27.6805 14.6437 32.8601 21.7074 33.9938 23.2943C34.2424 23.6423 34.8795 24.6332 35.4997 25.3928H35.4996L35.506 25.4005C35.5308 25.4309 35.5557 25.4609 35.5805 25.4905L36.5913 26.7123H42.4795L42.2163 26.3448H42.2277L35.8705 17.6558C36.6096 17.0209 37.6724 16.5705 38.1502 16.1099C43.6436 11.3125 41.911 0.752195 32.7276 0.106201L32.7278 4.59903Z" fill="#009035"/>
</svg>
