<svg width="20" height="20" viewBox="0 0 20 20" fill="none" xmlns="http://www.w3.org/2000/svg">
<path fill-rule="evenodd" clip-rule="evenodd" d="M9.32987 3.6814C8.62366 3.40414 7.86362 3.29122 7.1073 3.3512C6.35099 3.41119 5.61824 3.6425 4.96456 4.02761C4.31089 4.41273 3.75342 4.94155 3.33439 5.57403C2.91537 6.2065 2.64576 6.92605 2.54601 7.67815C2.44626 8.43025 2.51897 9.19519 2.75864 9.91503C2.9983 10.6349 3.39864 11.2907 3.92933 11.8329C4.25125 12.1618 4.24559 12.6895 3.91668 13.0114C3.58776 13.3333 3.06016 13.3276 2.73823 12.9987C2.03065 12.2758 1.49687 11.4013 1.17731 10.4415C0.857757 9.48174 0.760809 8.46182 0.893814 7.45901C1.02682 6.45621 1.38629 5.49682 1.94499 4.65352C2.50369 3.81022 3.24698 3.10512 4.11855 2.59163C4.99012 2.07814 5.96711 1.76973 6.97553 1.68975C7.98395 1.60978 8.99735 1.76033 9.93896 2.13002C10.8806 2.49971 11.7257 3.07883 12.4104 3.82352C12.9524 4.41309 13.3826 5.09418 13.6819 5.83333H14.5837C14.5837 5.83333 14.5837 5.83333 14.5837 5.83333C15.567 5.83324 16.5245 6.14942 17.3143 6.73517C18.1042 7.32094 18.6848 8.14523 18.9702 9.08628C19.2557 10.0273 19.2309 11.0352 18.8995 11.9611C18.5681 12.887 17.9477 13.6817 17.13 14.228C16.7473 14.4836 16.2298 14.3806 15.9741 13.9979C15.7185 13.6152 15.8215 13.0977 16.2042 12.842C16.7246 12.4944 17.1194 11.9887 17.3303 11.3995C17.5412 10.8103 17.5569 10.1689 17.3753 9.57006C17.1937 8.9712 16.8242 8.44666 16.3216 8.07389C15.8189 7.70113 15.2097 7.49992 14.5839 7.5H13.0921C12.7237 7.5 12.399 7.25809 12.2936 6.90508C12.0766 6.1781 11.6969 5.51005 11.1834 4.95153C10.6699 4.39301 10.0361 3.95867 9.32987 3.6814Z" fill="#F28E46"/>
<path fill-rule="evenodd" clip-rule="evenodd" d="M10.0013 9.16669C10.4615 9.16669 10.8346 9.53978 10.8346 10V17.5C10.8346 17.9603 10.4615 18.3334 10.0013 18.3334C9.54106 18.3334 9.16797 17.9603 9.16797 17.5V10C9.16797 9.53978 9.54106 9.16669 10.0013 9.16669Z" fill="#F28E46"/>
<path fill-rule="evenodd" clip-rule="evenodd" d="M6.07611 13.5774C6.40155 13.252 6.92918 13.252 7.25462 13.5774L9.9987 16.3215L12.7428 13.5774C13.0682 13.252 13.5958 13.252 13.9213 13.5774C14.2467 13.9028 14.2467 14.4305 13.9213 14.7559L10.588 18.0892C10.2625 18.4147 9.73488 18.4147 9.40944 18.0892L6.07611 14.7559C5.75067 14.4305 5.75067 13.9028 6.07611 13.5774Z" fill="#F28E46"/>
</svg>
